<svg width="32" height="32" viewBox="0 0 32 32" fill="none" xmlns="http://www.w3.org/2000/svg">
<rect width="32" height="32" fill="white"/>
<path fill-rule="evenodd" clip-rule="evenodd" d="M18.9671 14.9494C18.3427 14.3251 17.4807 13.937 16.5331 13.937C15.5857 13.937 14.7237 14.3251 14.0994 14.9494C13.4752 15.5741 13.0874 16.4361 13.0874 17.384V21.7027C13.0874 22.6436 13.4697 23.4998 14.0856 24.1233L14.1001 24.1369C14.7245 24.7613 15.5865 25.1494 16.5341 25.1494C17.4814 25.1494 18.3434 24.7613 18.9678 24.1369C19.5919 23.5123 19.9797 22.6503 19.9797 21.7024V17.3837C19.9797 16.4428 19.5975 15.5866 18.9815 14.9631L18.9671 14.9494ZM16.5334 2.69258C19.6487 2.69258 22.7644 3.87227 25.1228 6.23045C25.2319 6.33944 25.4092 6.33944 25.5182 6.23045C25.6273 6.12146 25.6273 5.94412 25.5182 5.83506C23.0507 3.3678 19.7913 2.13333 16.5334 2.13333C13.2754 2.13333 10.0157 3.3678 7.54846 5.83506C7.43939 5.94405 7.43939 6.12142 7.54846 6.23045C7.65748 6.33944 7.83476 6.33944 7.94378 6.23045C10.302 3.87227 13.418 2.69258 16.5334 2.69258ZM16.5334 6.00898C18.797 6.00898 21.0607 6.86573 22.7742 8.57886C22.8832 8.68786 23.0605 8.68786 23.1695 8.57886C23.2786 8.46987 23.2786 8.2925 23.1695 8.18347C21.3468 6.361 18.9399 5.44978 16.5334 5.44978C14.1268 5.44978 11.7196 6.361 9.89715 8.18347C9.78809 8.29246 9.78809 8.46984 9.89715 8.57886C10.0062 8.68786 10.1834 8.68786 10.2925 8.57886C12.0056 6.86573 14.2696 6.00898 16.5334 6.00898ZM12.6415 10.9278C13.7098 9.85946 15.1216 9.32512 16.5334 9.32512C17.9448 9.32512 19.3568 9.85946 20.4252 10.9278C20.5342 11.0368 20.7115 11.0368 20.8206 10.9278C20.9296 10.8189 20.9296 10.6415 20.8206 10.5325C19.6429 9.3548 18.0877 8.76592 16.5334 8.76592C14.979 8.76592 13.4238 9.3548 12.2461 10.5325C12.1371 10.6415 12.1371 10.8188 12.2461 10.9278C12.3552 11.0368 12.5325 11.0368 12.6415 10.9278V10.9278ZM16.5331 27.2655C15.0248 27.2655 13.6556 26.7226 12.6655 25.8485C11.6847 24.9823 11.0754 23.7891 11.0754 22.4789V19.5428C11.0754 19.3885 10.9501 19.2632 10.7958 19.2632C10.6414 19.2632 10.5162 19.3885 10.5162 19.5428V22.4789C10.5162 23.9553 11.1981 25.2957 12.2965 26.2657C13.3237 27.1727 14.717 27.7557 16.2534 27.8189V29.5941H13.2938C13.1395 29.5941 13.0142 29.7193 13.0142 29.8737C13.0142 30.0281 13.1395 30.1533 13.2938 30.1533H16.5258H16.5403H19.7724C19.9267 30.1533 20.0519 30.0281 20.0519 29.8737C20.0519 29.7194 19.9267 29.5941 19.7724 29.5941H16.8127V27.8189C18.3494 27.7557 19.7421 27.1727 20.77 26.2657C21.8683 25.2957 22.5502 23.9553 22.5502 22.4789V19.5428C22.5502 19.3885 22.425 19.2632 22.2706 19.2632C22.1163 19.2632 21.991 19.3885 21.991 19.5428V22.4789C21.991 23.7891 21.3818 24.9823 20.4009 25.8485C19.4105 26.7229 18.0416 27.2655 16.5331 27.2655H16.5331ZM14.776 16.9346H18.2904C18.4447 16.9346 18.57 17.06 18.57 17.2142C18.57 17.3686 18.4447 17.4939 18.2904 17.4939H14.776C14.6217 17.4939 14.4964 17.3686 14.4964 17.2142C14.4964 17.0599 14.6217 16.9346 14.776 16.9346V16.9346ZM14.776 19.2632H18.2904C18.4447 19.2632 18.57 19.3885 18.57 19.5428C18.57 19.6972 18.4447 19.8224 18.2904 19.8224H14.776C14.6217 19.8224 14.4964 19.6972 14.4964 19.5428C14.4964 19.3885 14.6217 19.2632 14.776 19.2632V19.2632ZM14.4964 21.8716C14.4964 21.7174 14.6217 21.5921 14.776 21.5921H18.2904C18.4447 21.5921 18.57 21.7173 18.57 21.8716C18.57 22.0261 18.4447 22.1512 18.2904 22.1512H14.776C14.6217 22.1512 14.4964 22.026 14.4964 21.8716V21.8716Z" fill="#FF4848"/>
</svg>
